<svg width="382" height="70" viewBox="0 0 382 70" fill-rule="evenodd" clip-rule="evenodd" fill="none" xmlns="http://www.w3.org/2000/svg">
<path d="M375.641 2.58055L5.64139 35.8863C3.57955 36.0719 2 37.8 2 39.8702V64.0001C2 66.2092 3.79085 68.0001 5.99999 68.0001H376C378.209 68.0001 380 66.2092 380 64.0001V6.56444C380 4.21373 377.983 2.3698 375.641 2.58055ZM5.46208 33.8944C2.36933 34.1728 0 36.765 0 39.8702V64.0001C0 67.3138 2.68628 70.0001 5.99999 70.0001H376C379.314 70.0001 382 67.3138 382 64.0001V6.56444C382 3.03837 378.974 0.272483 375.462 0.588606L5.46208 33.8944Z"/>
</svg>
