<svg width="60" height="21" viewBox="0 0 60 21" fill="none" xmlns="http://www.w3.org/2000/svg">
<path d="M1.91706 20.4167C-2.06011 20.4167 3.59737 15.627 3.59737 9.98914C3.59737 4.35123 -2.06011 -8.76855e-07 1.91707 -7.03007e-07C5.89424 -5.2916e-07 18 4.35123 18 9.98914C18 15.627 5.89424 20.4167 1.91706 20.4167Z"/>
<path d="M22.9171 20.4167C18.9399 20.4167 24.5974 15.627 24.5974 9.98914C24.5974 4.35123 18.9399 -8.76855e-07 22.9171 -7.03007e-07C26.8942 -5.2916e-07 39 4.35123 39 9.98914C39 15.627 26.8942 20.4167 22.9171 20.4167Z"/>
<path d="M43.9171 20.4167C39.9399 20.4167 45.5974 15.627 45.5974 9.98914C45.5974 4.35123 39.9399 -8.76855e-07 43.9171 -7.03007e-07C47.8942 -5.2916e-07 60 4.35123 60 9.98914C60 15.627 47.8942 20.4167 43.9171 20.4167Z"/>
</svg>
